<svg width="96" height="96" viewBox="0 0 96 96" fill="none" xmlns="http://www.w3.org/2000/svg">
<circle cx="48" cy="48" r="48" fill="#FBE8F0"/>
<path d="M62.7786 70H33.2214C29.2379 70 26 66.7621 26 62.7786V33.2214C26 29.2379 29.2379 26 33.2214 26H62.7786C66.7621 26 70 29.2379 70 33.2214V62.7786C70 66.7621 66.7621 70 62.7786 70ZM33.2214 27.0076C29.7954 27.0076 27.0076 29.7954 27.0076 33.2214V62.7786C27.0076 66.2046 29.7954 68.9924 33.2214 68.9924H62.7786C66.2046 68.9924 68.9924 66.2046 68.9924 62.7786V33.2214C68.9924 29.7954 66.2046 27.0076 62.7786 27.0076H33.2214Z" fill="#D91966"/>
<path d="M39.7173 61.9391H26.5038C26.2284 61.9391 26 61.7107 26 61.4353V38.5956C26 38.3202 26.2284 38.0918 26.5038 38.0918H39.7173C39.9927 38.0918 40.2211 38.3202 40.2211 38.5956C40.2211 38.871 39.9927 39.0994 39.7173 39.0994H27.0076V60.9315H39.7173C39.9927 60.9315 40.2211 61.1599 40.2211 61.4353C40.2211 61.7107 39.9927 61.9391 39.7173 61.9391Z" fill="#D91966"/>
<path d="M69.4965 61.9391H56.2831C56.0077 61.9391 55.7793 61.7107 55.7793 61.4353C55.7793 61.1599 56.0077 60.9315 56.2831 60.9315H68.9927V39.0994H56.2831C56.0077 39.0994 55.7793 38.871 55.7793 38.5956C55.7793 38.3202 56.0077 38.0918 56.2831 38.0918H69.4965C69.772 38.0918 70.0004 38.3202 70.0004 38.5956V61.4353C70.0004 61.7107 69.772 61.9391 69.4965 61.9391Z" fill="#D91966"/>
<path d="M64.7934 35.7411H58.0758C57.0548 35.7411 56.2285 34.9148 56.2285 33.8937V31.2067C56.2285 30.1856 57.0548 29.3594 58.0758 29.3594H64.7934C65.8145 29.3594 66.6407 30.1856 66.6407 31.2067V33.8937C66.6407 34.9081 65.8145 35.7411 64.7934 35.7411ZM58.0758 30.367C57.6123 30.367 57.2361 30.7432 57.2361 31.2067V33.8937C57.2361 34.3572 57.6123 34.7334 58.0758 34.7334H64.7934C65.2569 34.7334 65.6331 34.3572 65.6331 33.8937V31.2067C65.6331 30.7432 65.2569 30.367 64.7934 30.367H58.0758Z" fill="#D91966"/>
<path d="M48.0013 64.6257C39.947 64.6257 33.3906 58.0693 33.3906 50.015C33.3906 41.9606 39.947 35.4043 48.0013 35.4043C56.0557 35.4043 62.612 41.9606 62.612 50.015C62.612 58.0693 56.0557 64.6257 48.0013 64.6257ZM48.0013 36.4119C40.4978 36.4119 34.3983 42.5115 34.3983 50.015C34.3983 57.5185 40.4978 63.618 48.0013 63.618C55.5048 63.618 61.6044 57.5185 61.6044 50.015C61.6044 42.5115 55.4981 36.4119 48.0013 36.4119Z" fill="#D91966"/>
<path d="M48.0001 60.5959C42.1692 60.5959 37.4199 55.8465 37.4199 50.0157C37.4199 44.1849 42.1692 39.4355 48.0001 39.4355C53.8309 39.4355 58.5802 44.1849 58.5802 50.0157C58.5802 55.8533 53.8309 60.5959 48.0001 60.5959ZM48.0001 40.4432C42.7201 40.4432 38.4276 44.7357 38.4276 50.0157C38.4276 55.2957 42.7201 59.5882 48.0001 59.5882C53.2801 59.5882 57.5726 55.2957 57.5726 50.0157C57.5726 44.7357 53.2801 40.4432 48.0001 40.4432Z" fill="#D91966"/>
<path d="M32.5503 35.0694C31.1598 35.0694 30.0312 33.9409 30.0312 32.5503C30.0312 31.1598 31.1598 30.0312 32.5503 30.0312C33.9409 30.0312 35.0694 31.1598 35.0694 32.5503C35.0694 33.9409 33.9342 35.0694 32.5503 35.0694ZM32.5503 31.0389C31.7174 31.0389 31.0389 31.7174 31.0389 32.5503C31.0389 33.3833 31.7174 34.0618 32.5503 34.0618C33.3833 34.0618 34.0618 33.3833 34.0618 32.5503C34.0618 31.7174 33.3833 31.0389 32.5503 31.0389Z" fill="#D91966"/>
<path d="M54.7187 30.367C54.9969 30.367 55.2225 30.1414 55.2225 29.8632C55.2225 29.5849 54.9969 29.3594 54.7187 29.3594C54.4404 29.3594 54.2148 29.5849 54.2148 29.8632C54.2148 30.1414 54.4404 30.367 54.7187 30.367Z" fill="#D91966"/>
<path d="M50.6868 56.565C48.5573 56.565 46.8242 54.8319 46.8242 52.7024C46.8242 50.573 48.5573 48.8398 50.6868 48.8398C52.8163 48.8398 54.5494 50.573 54.5494 52.7024C54.5494 54.8319 52.8163 56.565 50.6868 56.565ZM50.6868 49.8475C49.1149 49.8475 47.8319 51.1305 47.8319 52.7024C47.8319 54.2743 49.1149 55.5574 50.6868 55.5574C52.2587 55.5574 53.5418 54.2743 53.5418 52.7024C53.5418 51.1305 52.2587 49.8475 50.6868 49.8475Z" fill="#D91966"/>
<path d="M66.808 57.2361H64.121C63.8456 57.2361 63.6172 57.0078 63.6172 56.7323C63.6172 56.4569 63.8456 56.2285 64.121 56.2285H66.808C67.0834 56.2285 67.3118 56.4569 67.3118 56.7323C67.3118 57.0078 67.0834 57.2361 66.808 57.2361Z" fill="#D91966"/>
<path d="M65.4648 58.5794C65.1893 58.5794 64.9609 58.351 64.9609 58.0756V55.3886C64.9609 55.1132 65.1893 54.8848 65.4648 54.8848C65.7402 54.8848 65.9686 55.1132 65.9686 55.3886V58.0756C65.9686 58.351 65.7402 58.5794 65.4648 58.5794Z" fill="#D91966"/>
<path d="M56.6401 67.992H50.7421C50.4667 67.992 50.2383 67.7636 50.2383 67.4882C50.2383 67.2128 50.4667 66.9844 50.7421 66.9844H56.6401C56.9155 66.9844 57.1439 67.2128 57.1439 67.4882C57.1439 67.7636 56.9155 67.992 56.6401 67.992Z" fill="#D91966"/>
<path d="M60.8107 67.992H59.3261C59.0507 67.992 58.8223 67.7636 58.8223 67.4882C58.8223 67.2128 59.0507 66.9844 59.3261 66.9844H60.8107C61.0861 66.9844 61.3145 67.2128 61.3145 67.4882C61.3145 67.7636 61.0928 67.992 60.8107 67.992Z" fill="#D91966"/>
<path d="M46.7651 44.4725H44.078C43.8026 44.4725 43.5742 44.2441 43.5742 43.9687C43.5742 43.6932 43.8026 43.4648 44.078 43.4648H46.7651C47.0405 43.4648 47.2689 43.6932 47.2689 43.9687C47.2689 44.2441 47.0472 44.4725 46.7651 44.4725Z" fill="#D91966"/>
<path d="M45.4218 45.8177C45.1464 45.8177 44.918 45.5893 44.918 45.3139V42.6269C44.918 42.3514 45.1464 42.123 45.4218 42.123C45.6972 42.123 45.9256 42.3514 45.9256 42.6269V45.3139C45.9256 45.5893 45.7039 45.8177 45.4218 45.8177Z" fill="#D91966"/>
</svg>
