<svg width="96" height="96" viewBox="0 0 96 96" fill="none" xmlns="http://www.w3.org/2000/svg">
<circle cx="48" cy="48" r="48" fill="#FBE8F0"/>
<path d="M60.0898 49.8465C59.8143 49.8465 59.5859 49.6181 59.5859 49.3427V43.9687C59.5859 43.6932 59.8143 43.4648 60.0898 43.4648C60.3652 43.4648 60.5936 43.6932 60.5936 43.9687V49.3427C60.5936 49.6248 60.3652 49.8465 60.0898 49.8465Z" fill="#D91966"/>
<path d="M58.7493 70H33.2226C32.9471 70 32.7188 69.7716 32.7188 69.4962V26.5038C32.7188 26.2284 32.9471 26 33.2226 26H58.7493C59.7704 26 60.5966 26.8263 60.5966 27.8473V31.8779C60.5966 32.1533 60.3682 32.3817 60.0928 32.3817C59.8174 32.3817 59.589 32.1533 59.589 31.8779V27.8473C59.589 27.3838 59.2128 27.0076 58.7493 27.0076H33.7264V68.9924H58.7493C59.2128 68.9924 59.589 68.6162 59.589 68.1527V64.1221C59.589 63.8467 59.8174 63.6183 60.0928 63.6183C60.3682 63.6183 60.5966 63.8467 60.5966 64.1221V68.1527C60.5966 69.1737 59.7704 70 58.7493 70Z" fill="#D91966"/>
<path d="M33.2216 70H29.1911C28.17 70 27.3438 69.1737 27.3438 68.1527V27.8473C27.3438 26.8263 28.17 26 29.1911 26H33.2216C33.497 26 33.7254 26.2284 33.7254 26.5038V69.4962C33.7254 69.7783 33.497 70 33.2216 70ZM29.1911 27.0076C28.7276 27.0076 28.3514 27.3838 28.3514 27.8473V68.1527C28.3514 68.6162 28.7276 68.9924 29.1911 68.9924H32.7178V27.0076H29.1911Z" fill="#D91966"/>
<path d="M29.1908 67.3123H26.5038C26.2284 67.3123 26 67.0839 26 66.8085C26 66.5331 26.2284 66.3047 26.5038 66.3047H29.1908C29.4663 66.3047 29.6947 66.5331 29.6947 66.8085C29.6947 67.0906 29.4663 67.3123 29.1908 67.3123Z" fill="#D91966"/>
<path d="M29.1908 62.6111H26.5038C26.2284 62.6111 26 62.3828 26 62.1073C26 61.8319 26.2284 61.6035 26.5038 61.6035H29.1908C29.4663 61.6035 29.6947 61.8319 29.6947 62.1073C29.6947 62.3828 29.4663 62.6111 29.1908 62.6111Z" fill="#D91966"/>
<path d="M29.1908 57.908H26.5038C26.2284 57.908 26 57.6796 26 57.4042C26 57.1288 26.2284 56.9004 26.5038 56.9004H29.1908C29.4663 56.9004 29.6947 57.1288 29.6947 57.4042C29.6947 57.6796 29.4663 57.908 29.1908 57.908Z" fill="#D91966"/>
<path d="M29.1908 53.2069H26.5038C26.2284 53.2069 26 52.9785 26 52.703C26 52.4276 26.2284 52.1992 26.5038 52.1992H29.1908C29.4663 52.1992 29.6947 52.4276 29.6947 52.703C29.6947 52.9785 29.4663 53.2069 29.1908 53.2069Z" fill="#D91966"/>
<path d="M29.1908 48.5037H26.5038C26.2284 48.5037 26 48.2753 26 47.9999C26 47.7245 26.2284 47.4961 26.5038 47.4961H29.1908C29.4663 47.4961 29.6947 47.7245 29.6947 47.9999C29.6947 48.2753 29.4663 48.5037 29.1908 48.5037Z" fill="#D91966"/>
<path d="M29.1908 43.8006H26.5038C26.2284 43.8006 26 43.5722 26 43.2968C26 43.0214 26.2284 42.793 26.5038 42.793H29.1908C29.4663 42.793 29.6947 43.0214 29.6947 43.2968C29.6947 43.5722 29.4663 43.8006 29.1908 43.8006Z" fill="#D91966"/>
<path d="M29.1908 39.0994H26.5038C26.2284 39.0994 26 38.871 26 38.5956C26 38.3202 26.2284 38.0918 26.5038 38.0918H29.1908C29.4663 38.0918 29.6947 38.3202 29.6947 38.5956C29.6947 38.871 29.4663 39.0994 29.1908 39.0994Z" fill="#D91966"/>
<path d="M29.1908 34.3963H26.5038C26.2284 34.3963 26 34.1679 26 33.8925C26 33.6171 26.2284 33.3887 26.5038 33.3887H29.1908C29.4663 33.3887 29.6947 33.6171 29.6947 33.8925C29.6947 34.1679 29.4663 34.3963 29.1908 34.3963Z" fill="#D91966"/>
<path d="M29.1908 29.6951H26.5038C26.2284 29.6951 26 29.4667 26 29.1913C26 28.9159 26.2217 28.6875 26.5038 28.6875H29.1908C29.4663 28.6875 29.6947 28.9159 29.6947 29.1913C29.6947 29.4667 29.4663 29.6951 29.1908 29.6951Z" fill="#D91966"/>
<path d="M66.1383 61.9386H54.0467C53.4018 61.9386 52.8711 61.4079 52.8711 60.763V58.076C52.8711 57.4311 53.4018 56.9004 54.0467 56.9004H66.1383C66.7832 56.9004 67.3138 57.4311 67.3138 58.076V60.763C67.3138 61.4146 66.7832 61.9386 66.1383 61.9386ZM54.0467 57.908C53.9526 57.908 53.8787 57.9819 53.8787 58.076V60.763C53.8787 60.857 53.9526 60.9309 54.0467 60.9309H66.1383C66.2323 60.9309 66.3062 60.857 66.3062 60.763V58.076C66.3062 57.9819 66.2323 57.908 66.1383 57.908H54.0467Z" fill="#D91966"/>
<path d="M68.1551 64.6261H41.2848C40.2638 64.6261 39.4375 63.7998 39.4375 62.7788V50.6872C39.4375 49.6661 40.2638 48.8398 41.2848 48.8398H68.1551C69.1761 48.8398 70.0024 49.6661 70.0024 50.6872V62.7788C70.0024 63.7998 69.1761 64.6261 68.1551 64.6261ZM41.2848 49.8475C40.8213 49.8475 40.4451 50.2237 40.4451 50.6872V62.7788C40.4451 63.2423 40.8213 63.6185 41.2848 63.6185H68.1551C68.6186 63.6185 68.9948 63.2423 68.9948 62.7788V50.6872C68.9948 50.2237 68.6186 49.8475 68.1551 49.8475H41.2848Z" fill="#D91966"/>
<path d="M68.1528 44.4742H50.6872C49.6661 44.4742 48.8398 43.648 48.8398 42.6269V33.2223C48.8398 32.2013 49.6661 31.375 50.6872 31.375H68.1528C69.1739 31.375 70.0001 32.2013 70.0001 33.2223V42.6269C70.0001 43.648 69.1672 44.4742 68.1528 44.4742ZM50.6872 32.3826C50.2237 32.3826 49.8475 32.7588 49.8475 33.2223V42.6269C49.8475 43.0904 50.2237 43.4666 50.6872 43.4666H68.1528C68.6163 43.4666 68.9925 43.0904 68.9925 42.6269V33.2223C68.9925 32.7588 68.6163 32.3826 68.1528 32.3826H50.6872Z" fill="#D91966"/>
<path d="M63.4499 55.2205H59.1171C58.8417 55.2205 58.6133 54.9921 58.6133 54.7167C58.6133 54.4413 58.8417 54.2129 59.1171 54.2129H63.4499C63.7253 54.2129 63.9537 54.4413 63.9537 54.7167C63.9537 54.9988 63.7253 55.2205 63.4499 55.2205Z" fill="#D91966"/>
<path d="M56.4314 55.2205H53.3749C53.0995 55.2205 52.8711 54.9921 52.8711 54.7167C52.8711 54.4413 53.0995 54.2129 53.3749 54.2129H56.4314C56.7068 54.2129 56.9352 54.4413 56.9352 54.7167C56.9352 54.9988 56.7068 55.2205 56.4314 55.2205Z" fill="#D91966"/>
<path d="M66.8069 52.535H62.7226C62.4471 52.535 62.2188 52.3066 62.2188 52.0312C62.2188 51.7557 62.4471 51.5273 62.7226 51.5273H66.8069C67.0823 51.5273 67.3107 51.7557 67.3107 52.0312C67.3107 52.3133 67.0823 52.535 66.8069 52.535Z" fill="#D91966"/>
<path d="M60.0387 52.535H53.3749C53.0995 52.535 52.8711 52.3066 52.8711 52.0312C52.8711 51.7557 53.0995 51.5273 53.3749 51.5273H60.0387C60.3141 51.5273 60.5425 51.7557 60.5425 52.0312C60.5425 52.3133 60.3209 52.535 60.0387 52.535Z" fill="#D91966"/>
<path d="M63.8949 39.7713H60.7577C60.4823 39.7713 60.2539 39.5429 60.2539 39.2675C60.2539 38.9921 60.4823 38.7637 60.7577 38.7637H63.8949C64.1703 38.7637 64.3987 38.9921 64.3987 39.2675C64.3987 39.5429 64.177 39.7713 63.8949 39.7713Z" fill="#D91966"/>
<path d="M66.1357 37.0838H60.7616C60.4862 37.0838 60.2578 36.8554 60.2578 36.58C60.2578 36.3046 60.4862 36.0762 60.7616 36.0762H66.1357C66.4111 36.0762 66.6395 36.3046 66.6395 36.58C66.6395 36.8554 66.4111 37.0838 66.1357 37.0838Z" fill="#D91966"/>
<path d="M41.0548 40.4432H36.5741C36.2987 40.4432 36.0703 40.2148 36.0703 39.9394C36.0703 39.6639 36.2987 39.4355 36.5741 39.4355H41.0548C41.3302 39.4355 41.5586 39.6639 41.5586 39.9394C41.5586 40.2148 41.3369 40.4432 41.0548 40.4432Z" fill="#D91966"/>
<path d="M43.9713 37.7557H36.5819C36.3065 37.7557 36.0781 37.5273 36.0781 37.2519C36.0781 36.9764 36.3065 36.748 36.5819 36.748H43.9713C44.2467 36.748 44.4751 36.9764 44.4751 37.2519C44.4751 37.5273 44.2467 37.7557 43.9713 37.7557Z" fill="#D91966"/>
<path d="M46.2958 59.923C46.2084 59.923 46.1211 59.9028 46.0405 59.8558L43.7162 58.5123C43.5617 58.425 43.4609 58.257 43.4609 58.0756V55.3886C43.4609 55.2072 43.555 55.0393 43.7162 54.952L46.0405 53.6085C46.195 53.5211 46.3898 53.5211 46.5443 53.6085L48.8686 54.952C49.0231 55.0393 49.1238 55.2072 49.1238 55.3886V58.0756C49.1238 58.257 49.0298 58.425 48.8686 58.5123L46.5443 59.8558C46.4704 59.9028 46.3831 59.923 46.2958 59.923ZM44.4753 57.7868L46.2958 58.8414L48.1162 57.7868V55.6842L46.2958 54.6295L44.4753 55.6842V57.7868Z" fill="#D91966"/>
<path d="M55.0262 41.1144C54.9389 41.1144 54.8516 41.0942 54.771 41.0472L52.4467 39.7037C52.2922 39.6164 52.1914 39.4484 52.1914 39.267V36.58C52.1914 36.3986 52.2855 36.2307 52.4467 36.1434L54.771 34.7999C54.9255 34.7125 55.1203 34.7125 55.2748 34.7999L57.5991 36.1434C57.7536 36.2307 57.8543 36.3986 57.8543 36.58V39.267C57.8543 39.4484 57.7603 39.6164 57.5991 39.7037L55.2748 41.0472C55.2009 41.0942 55.1136 41.1144 55.0262 41.1144ZM53.2058 38.9782L55.0262 40.0328L56.8467 38.9782V36.8756L55.0262 35.8209L53.2058 36.8756V38.9782Z" fill="#D91966"/>
<path d="M38.9051 35.0675C38.8178 35.0675 38.7305 35.0473 38.6499 35.0003L36.3256 33.6568C36.1711 33.5695 36.0703 33.4015 36.0703 33.2202V30.5331C36.0703 30.3518 36.1644 30.1838 36.3256 30.0965L38.6499 28.753C38.8044 28.6657 38.9992 28.6657 39.1537 28.753L41.478 30.0965C41.6325 30.1838 41.7332 30.3518 41.7332 30.5331V33.2202C41.7332 33.4015 41.6392 33.5695 41.478 33.6568L39.1537 35.0003C39.0798 35.0473 38.9925 35.0675 38.9051 35.0675ZM37.0847 32.9313L38.9051 33.986L40.7256 32.9313V30.822L38.9051 29.7673L37.0847 30.822V32.9313Z" fill="#D91966"/>
<path d="M65.4643 68.6561H62.7773C62.5018 68.6561 62.2734 68.4277 62.2734 68.1523C62.2734 67.8768 62.5018 67.6484 62.7773 67.6484H65.4643C65.7397 67.6484 65.9681 67.8768 65.9681 68.1523C65.9681 68.4344 65.7397 68.6561 65.4643 68.6561Z" fill="#D91966"/>
<path d="M64.121 69.9993C63.8456 69.9993 63.6172 69.7709 63.6172 69.4955V66.8085C63.6172 66.5331 63.8456 66.3047 64.121 66.3047C64.3964 66.3047 64.6248 66.5331 64.6248 66.8085V69.4955C64.6248 69.7777 64.3964 69.9993 64.121 69.9993Z" fill="#D91966"/>
<path d="M67.4799 28.3514H64.7929C64.5175 28.3514 64.2891 28.123 64.2891 27.8476C64.2891 27.5721 64.5175 27.3438 64.7929 27.3438H67.4799C67.7553 27.3438 67.9837 27.5721 67.9837 27.8476C67.9837 28.123 67.7553 28.3514 67.4799 28.3514Z" fill="#D91966"/>
<path d="M66.1366 29.6947C65.8612 29.6947 65.6328 29.4663 65.6328 29.1908V26.5038C65.6328 26.2284 65.8612 26 66.1366 26C66.412 26 66.6404 26.2284 66.6404 26.5038V29.1908C66.6404 29.4663 66.412 29.6947 66.1366 29.6947Z" fill="#D91966"/>
<path d="M50.2026 47.16H44.3046C44.0292 47.16 43.8008 46.9316 43.8008 46.6562C43.8008 46.3807 44.0292 46.1523 44.3046 46.1523H50.2026C50.4781 46.1523 50.7064 46.3807 50.7064 46.6562C50.7064 46.9316 50.4848 47.16 50.2026 47.16Z" fill="#D91966"/>
<path d="M54.3829 47.16H52.8983C52.6229 47.16 52.3945 46.9316 52.3945 46.6562C52.3945 46.3807 52.6229 46.1523 52.8983 46.1523H54.3829C54.6583 46.1523 54.8867 46.3807 54.8867 46.6562C54.8867 46.9316 54.6583 47.16 54.3829 47.16Z" fill="#D91966"/>
</svg>
