<svg width="96" height="96" viewBox="0 0 96 96" fill="none" xmlns="http://www.w3.org/2000/svg">
<circle cx="48" cy="48" r="48" fill="#FBE8F0"/>
<path d="M69.4962 61.9399H26.5038C26.2284 61.9399 26 61.7115 26 61.4361V33.8941C26 32.5035 27.1285 31.375 28.5191 31.375H56.6186C56.894 31.375 57.1224 31.6034 57.1224 31.8788C57.1224 32.1542 56.894 32.3826 56.6186 32.3826H28.5191C27.6861 32.3826 27.0076 33.0611 27.0076 33.8941V60.9323H68.9924V33.8941C68.9924 33.0611 68.3139 32.3826 67.4809 32.3826H64.1557C63.8803 32.3826 63.6519 32.1542 63.6519 31.8788C63.6519 31.6034 63.8803 31.375 64.1557 31.375H67.4809C68.8714 31.375 70 32.5035 70 33.8941V61.4361C70 61.7182 69.7716 61.9399 69.4962 61.9399Z" fill="#D91966"/>
<path d="M56.7315 69.9991H39.2659C39.0778 69.9991 38.9099 69.8983 38.8225 69.7371C38.7352 69.5759 38.7419 69.3744 38.8427 69.2199L41.4961 65.1893C41.5902 65.0483 41.7447 64.9609 41.9193 64.9609H54.0714C54.2393 64.9609 54.4006 65.0483 54.4946 65.1893L57.148 69.2199C57.2488 69.3744 57.2555 69.5759 57.1682 69.7371C57.0876 69.8983 56.9129 69.9991 56.7315 69.9991ZM40.1996 68.9915H55.7978L53.8094 65.9686H42.1948L40.1996 68.9915Z" fill="#D91966"/>
<path d="M61.4365 69.9998H34.5663C34.2909 69.9998 34.0625 69.7714 34.0625 69.496C34.0625 69.2206 34.2909 68.9922 34.5663 68.9922H61.4365C61.712 68.9922 61.9404 69.2206 61.9404 69.496C61.9404 69.7781 61.712 69.9998 61.4365 69.9998Z" fill="#D91966"/>
<path d="M67.4809 65.9698H28.5191C27.1285 65.9698 26 64.8413 26 63.4507V61.4355C26 61.16 26.2284 60.9316 26.5038 60.9316H69.4962C69.7716 60.9316 70 61.16 70 61.4355V63.4507C70 64.8413 68.8714 65.9698 67.4809 65.9698ZM27.0076 61.9393V63.4507C27.0076 64.2837 27.6861 64.9622 28.5191 64.9622H67.4809C68.3139 64.9622 68.9924 64.2837 68.9924 63.4507V61.9393H27.0076Z" fill="#D91966"/>
<path d="M43.299 49.8477C43.0774 49.8477 42.8826 49.6999 42.8154 49.485C42.7482 49.27 42.8355 49.0349 43.0303 48.914C47.8468 45.8373 50.3928 42.3039 51.2661 40.9201C51.3467 40.7925 51.481 40.7051 51.6355 40.6917C51.79 40.6783 51.9378 40.7253 52.0453 40.8328C52.6701 41.4508 53.2746 42.0621 53.5568 42.3577C53.6239 42.4248 53.6643 42.5122 53.6844 42.6062C54.0807 44.7357 53.0597 46.6502 50.8093 47.9937C47.867 49.7671 43.4871 49.8477 43.299 49.8477ZM51.7699 41.9882C50.769 43.4593 48.6597 46.1329 45.1531 48.6856C46.6377 48.4975 48.7201 48.0743 50.2853 47.1406C51.5751 46.368 53.0194 45.0178 52.7104 42.9421C52.4887 42.7137 52.1461 42.3711 51.7699 41.9882Z" fill="#D91966"/>
<path d="M43.2968 49.8468C43.2095 49.8468 43.1289 49.8266 43.055 49.7863C42.8937 49.699 42.793 49.5244 42.793 49.343C42.793 49.2489 42.8333 47.059 43.458 44.728C44.6 40.5094 46.9914 38.4068 50.0211 38.9711C50.1218 38.9912 50.2159 39.0382 50.2831 39.1121C50.5182 39.3472 50.8473 39.6764 51.2168 40.0392L52.0363 40.852C52.2043 41.0199 52.2311 41.2819 52.1102 41.4767C51.2033 42.9143 48.5566 46.5955 43.5655 49.7796C43.4849 49.8199 43.3908 49.8468 43.2968 49.8468ZM49.0739 39.8847C46.2592 39.8847 44.9627 43.015 44.4321 44.99C44.0827 46.273 43.9282 47.5359 43.8544 48.3689C47.7976 45.6617 50.0681 42.7262 51.0354 41.2685L50.5047 40.7445C50.1957 40.4355 49.9069 40.1534 49.6852 39.9317C49.4769 39.8981 49.2687 39.8847 49.0739 39.8847Z" fill="#D91966"/>
<path d="M55.8918 41.0602C55.7641 41.0602 55.6365 41.0132 55.5357 40.9124L51.7269 37.1035C51.5455 36.9155 51.5321 36.6266 51.7 36.4251C55.0319 32.455 61.333 25.8113 66.1562 26.0061C66.4182 26.0129 66.6331 26.2278 66.6399 26.4898C66.8145 31.313 60.1843 37.6141 56.2209 40.946C56.1202 41.0266 56.006 41.0602 55.8918 41.0602ZM52.7614 36.7207L55.9186 39.8779C61.8906 34.8061 65.377 30.1777 65.6188 27.0272C62.4683 27.2623 57.8399 30.7487 52.7614 36.7207Z" fill="#D91966"/>
<path d="M53.1856 43.2169C53.0579 43.2169 52.9236 43.1698 52.8295 43.0691L49.5715 39.8111C49.3969 39.6364 49.3767 39.3543 49.5245 39.1595C49.5312 39.146 50.3776 38.004 51.701 36.4254C51.795 36.3179 51.9227 36.2508 52.0637 36.244C52.2048 36.2306 52.3392 36.2911 52.4399 36.3918L56.2488 40.2007C56.3495 40.3015 56.4033 40.4358 56.3966 40.5769C56.3898 40.7179 56.3227 40.8523 56.2152 40.9396C54.6366 42.263 53.4946 43.1027 53.4811 43.1161C53.3938 43.1833 53.2863 43.2169 53.1856 43.2169ZM50.5926 39.408L53.2326 42.048C53.6155 41.7525 54.3007 41.2285 55.1471 40.5231L52.1175 37.4935C51.4188 38.3399 50.8882 39.0251 50.5926 39.408Z" fill="#D91966"/>
<path d="M63.4502 57.9091C63.2756 57.9091 40.6105 57.9091 40.6105 57.9091C38.1116 57.9091 36.0762 55.8736 36.0762 53.3747C36.0762 50.8758 38.1116 48.8404 40.6105 48.8404H43.2975C43.573 48.8404 43.8014 49.0688 43.8014 49.3442C43.8014 49.6196 43.573 49.848 43.2975 49.848H40.6105C38.6691 49.848 37.0838 51.4333 37.0838 53.3747C37.0838 55.3161 38.6691 56.9014 40.6105 56.9014H59.8832C61.9253 56.9014 62.9464 56.9014 63.4502 56.9686V56.9014C64.6527 56.9014 65.6334 55.9207 65.6334 54.7182C65.6334 53.5158 64.6527 52.535 63.4502 52.535H58.0762C58.0695 52.535 58.056 52.535 58.0493 52.535C56.3028 52.5216 54.8853 51.0975 54.8853 49.3442C54.8853 47.5842 56.3162 46.1533 58.0762 46.1533H63.4502C64.6527 46.1533 65.6334 45.1726 65.6334 43.9701C65.6334 42.7677 64.6527 41.7869 63.4502 41.7869H60.0914C59.816 41.7869 59.5876 41.5585 59.5876 41.2831C59.5876 41.0077 59.816 40.7793 60.0914 40.7793H63.4502C65.2102 40.7793 66.6411 42.2101 66.6411 43.9701C66.6411 45.7301 65.2102 47.161 63.4502 47.161H58.0762C56.8737 47.161 55.893 48.1417 55.893 49.3442C55.893 50.5466 56.8737 51.5274 58.0762 51.5274C58.0829 51.5274 58.0963 51.5274 58.103 51.5274H63.4502C65.2102 51.5274 66.6411 52.9582 66.6411 54.7182C66.6411 56.4782 65.2102 57.9091 63.4502 57.9091Z" fill="#D91966"/>
<path d="M32.5501 39.0987H29.8631C29.2182 39.0987 28.6875 38.568 28.6875 37.9231V35.2361C28.6875 34.5912 29.2182 34.0605 29.8631 34.0605H32.5501C33.195 34.0605 33.7257 34.5912 33.7257 35.2361V37.9231C33.7257 38.5747 33.195 39.0987 32.5501 39.0987ZM29.8631 35.0682C29.769 35.0682 29.6951 35.1421 29.6951 35.2361V37.9231C29.6951 38.0172 29.769 38.0911 29.8631 38.0911H32.5501C32.6441 38.0911 32.718 38.0172 32.718 37.9231V35.2361C32.718 35.1421 32.6441 35.0682 32.5501 35.0682H29.8631Z" fill="#D91966"/>
<path d="M32.5501 45.8175H29.8631C29.2182 45.8175 28.6875 45.2868 28.6875 44.6419V41.9549C28.6875 41.31 29.2182 40.7793 29.8631 40.7793H32.5501C33.195 40.7793 33.7257 41.31 33.7257 41.9549V44.6419C33.7257 45.2935 33.195 45.8175 32.5501 45.8175ZM29.8631 41.7869C29.769 41.7869 29.6951 41.8608 29.6951 41.9549V44.6419C29.6951 44.7359 29.769 44.8098 29.8631 44.8098H32.5501C32.6441 44.8098 32.718 44.7359 32.718 44.6419V41.9549C32.718 41.8608 32.6441 41.7869 32.5501 41.7869H29.8631Z" fill="#D91966"/>
<path d="M32.5501 52.5343H29.8631C29.2182 52.5343 28.6875 52.0036 28.6875 51.3587V48.6717C28.6875 48.0268 29.2182 47.4961 29.8631 47.4961H32.5501C33.195 47.4961 33.7257 48.0268 33.7257 48.6717V51.3587C33.7257 52.0103 33.195 52.5343 32.5501 52.5343ZM29.8631 48.5037C29.769 48.5037 29.6951 48.5776 29.6951 48.6717V51.3587C29.6951 51.4527 29.769 51.5266 29.8631 51.5266H32.5501C32.6441 51.5266 32.718 51.4527 32.718 51.3587V48.6717C32.718 48.5776 32.6441 48.5037 32.5501 48.5037H29.8631Z" fill="#D91966"/>
<path d="M32.5501 59.2511H29.8631C29.2182 59.2511 28.6875 58.7204 28.6875 58.0755V55.3885C28.6875 54.7436 29.2182 54.2129 29.8631 54.2129H32.5501C33.195 54.2129 33.7257 54.7436 33.7257 55.3885V58.0755C33.7257 58.7271 33.195 59.2511 32.5501 59.2511ZM29.8631 55.2205C29.769 55.2205 29.6951 55.2944 29.6951 55.3885V58.0755C29.6951 58.1695 29.769 58.2434 29.8631 58.2434H32.5501C32.6441 58.2434 32.718 58.1695 32.718 58.0755V55.3885C32.718 55.2944 32.6441 55.2205 32.5501 55.2205H29.8631Z" fill="#D91966"/>
<path d="M52.2851 29.6947C52.0096 29.6947 51.7812 29.4663 51.7812 29.1908V26.5038C51.7812 26.2284 52.0096 26 52.2851 26C52.5605 26 52.7889 26.2284 52.7889 26.5038V29.1908C52.7889 29.4663 52.5605 29.6947 52.2851 29.6947Z" fill="#D91966"/>
<path d="M53.6283 28.3514H50.9413C50.6659 28.3514 50.4375 28.123 50.4375 27.8476C50.4375 27.5721 50.6659 27.3438 50.9413 27.3438H53.6283C53.9038 27.3438 54.1322 27.5721 54.1322 27.8476C54.1322 28.123 53.9038 28.3514 53.6283 28.3514Z" fill="#D91966"/>
<path d="M37.5876 44.6404H36.58C36.3046 44.6404 36.0762 44.412 36.0762 44.1366C36.0762 43.8612 36.3046 43.6328 36.58 43.6328H37.5876C37.863 43.6328 38.0914 43.8612 38.0914 44.1366C38.0914 44.412 37.863 44.6404 37.5876 44.6404Z" fill="#D91966"/>
<path d="M40.947 44.6404H39.9394C39.6639 44.6404 39.4355 44.412 39.4355 44.1366C39.4355 43.8612 39.6639 43.6328 39.9394 43.6328H40.947C41.2224 43.6328 41.4508 43.8612 41.4508 44.1366C41.4508 44.412 41.2224 44.6404 40.947 44.6404Z" fill="#D91966"/>
<path d="M38.7636 46.8239C38.4882 46.8239 38.2598 46.5955 38.2598 46.32V45.3124C38.2598 45.037 38.4882 44.8086 38.7636 44.8086C39.039 44.8086 39.2674 45.037 39.2674 45.3124V46.32C39.2674 46.6022 39.039 46.8239 38.7636 46.8239Z" fill="#D91966"/>
<path d="M38.7636 43.4664C38.4882 43.4664 38.2598 43.238 38.2598 42.9626V41.955C38.2598 41.6796 38.4882 41.4512 38.7636 41.4512C39.039 41.4512 39.2674 41.6796 39.2674 41.955V42.9626C39.2674 43.2448 39.039 43.4664 38.7636 43.4664Z" fill="#D91966"/>
<path d="M41.6169 37.2518H40.6093C40.3339 37.2518 40.1055 37.0234 40.1055 36.748C40.1055 36.4725 40.3339 36.2441 40.6093 36.2441H41.6169C41.8923 36.2441 42.1207 36.4725 42.1207 36.748C42.1207 37.0301 41.8923 37.2518 41.6169 37.2518Z" fill="#D91966"/>
<path d="M44.9763 37.2518H43.9687C43.6932 37.2518 43.4648 37.0234 43.4648 36.748C43.4648 36.4725 43.6932 36.2441 43.9687 36.2441H44.9763C45.2517 36.2441 45.4801 36.4725 45.4801 36.748C45.4801 37.0301 45.2517 37.2518 44.9763 37.2518Z" fill="#D91966"/>
<path d="M42.7948 39.4352C42.5194 39.4352 42.291 39.2068 42.291 38.9314V37.9237C42.291 37.6483 42.5194 37.4199 42.7948 37.4199C43.0703 37.4199 43.2986 37.6483 43.2986 37.9237V38.9314C43.2986 39.2135 43.0703 39.4352 42.7948 39.4352Z" fill="#D91966"/>
<path d="M42.7948 36.0758C42.5194 36.0758 42.291 35.8474 42.291 35.572V34.5644C42.291 34.2889 42.5194 34.0605 42.7948 34.0605C43.0703 34.0605 43.2986 34.2889 43.2986 34.5644V35.572C43.2986 35.8541 43.0703 36.0758 42.7948 36.0758Z" fill="#D91966"/>
</svg>
